# xmcd CD database file
#
# Track frame offsets:
#	150
#	19951
#	35455
#	50236
#	66181
#	76499
#	91282
#	107296
#	120779
#	138944
#	155038
#	167026
#
# Disc length: 2383 seconds
#
# Revision: 1
# Processed by: cddbd v1.5.1PL2 Copyright (c) Steve Scherf et al.
# Submitted via: CDex 1.51
#
DISCID=96094d0c
DTITLE=Collection sono - Bresil
DYEAR=2000
DGENRE=Salsa
TTITLE0=Joyce and Maria Bethana - Tarde em Itapoan
TTITLE1=Flavio Faria - Essa moça ta differente
TTITLE2=Gilberto Astrud - The girl from Ipanema
TTITLE3=Marcel Ferreira - Maninos
TTITLE4=Nana Caymmi - Passarela
TTITLE5=Milton Nascimiento - Cançao do sal
TTITLE6=Nazaré Pereira - Mimile
TTITLE7=Baden Powel - Samba Novo
TTITLE8=Aroldo Melodia - O Amanha
TTITLE9=Edu Lobo - Cinco crianças
TTITLE10=José Barrense-Dias - Bate Bate
TTITLE11=Bateria Padre Miguel - Olha a virada
EXTD=YEAR: 2000
EXTT0=
EXTT1=
EXTT2=
EXTT3=
EXTT4=
EXTT5=
EXTT6=
EXTT7=
EXTT8=
EXTT9=
EXTT10=
EXTT11=
PLAYORDER=
